<svg xmlns="http://www.w3.org/2000/svg" width="2000" height="1252" viewBox="0 0 2000 1252"><svg viewBox="0 0 396 248" data-background-color="#ffffff" height="1252" width="2000" xmlns="http://www.w3.org/2000/svg" xmlns:xlink="http://www.w3.org/1999/xlink" transform="translate(-1.212 -2.02)"><svg viewBox="0 0 395.52 247.2" height="247.2" width="395.52" transform="translate(.24 .4)"><svg/><svg viewBox="0 0 395.52 247.2" height="247.2" width="395.52"><svg viewBox="0 0 152.77 152.77" height="152.77" width="152.77" transform="translate(121.375 47.215)"><svg viewBox="0 0 152.77 152.77" height="152.77" width="152.77"><svg viewBox="0 0 152.77 152.77" height="152.77" width="152.77"><svg viewBox="0 0 152.77 152.77" height="152.77" width="152.77"><svg viewBox="0 0 152.77 152.77" height="152.77" width="152.77"><svg viewBox="0 0 71.943 72.016" height="72.016" width="71.943" transform="translate(40.413 40.377)"><svg xmlns="http://www.w3.org/2000/svg" xmlns:xlink="http://www.w3.org/1999/xlink" version="1.1" x="0" y="0" viewBox="8.846 4.5 87.211 87.3" xml:space="preserve" height="72.016" width="71.943" class="icon-jxe-0" data-fill-palette-color="accent" id="jxe-0"/></svg><path d="M73.838 3.71a.4.4 0 0 1 .105-.283l.258-.328q.355-.416.826-.866.462-.45.925-.866.302-.241.453-.244.141-.002.459.235 1.019.847 1.764 1.696l.275.323a.43.43 0 0 1 .1.281.45.45 0 0 1-.105.295 10 10 0 0 0-.268.35q-.343.394-.795.832-.451.45-.925.867-.291.252-.453.254-.141.001-.48-.245a11 11 0 0 1-.953-.847q-.45-.44-.811-.85-.165-.205-.264-.322a.4.4 0 0 1-.111-.282m1.812 147.218q0-.043.033-.076l.076-.097a6 6 0 0 1 .228-.238q.141-.13.272-.238.087-.075.12-.076.043 0 .13.076.282.24.498.479.043.054.065.087a.14.14 0 0 1 .032.087.1.1 0 0 1-.033.076l-.076.097-.218.238a10 10 0 0 1-.272.238q-.076.065-.13.065-.033 0-.13-.065-.14-.12-.26-.24a3 3 0 0 1-.227-.25 1 1 0 0 0-.076-.087.1.1 0 0 1-.032-.076M0 74.753a1.78 1.78 0 1 1 3.559 0 1.78 1.78 0 0 1-3.559 0m149.213 0a1.78 1.78 0 1 1 3.559 0 1.78 1.78 0 0 1-3.559 0" data-fill-palette-color="primary" fill="#111"/><g/></svg></svg></svg><g/></svg></svg><path d="M177.461 44.564a76.4 76.4 0 0 1 40.598 0h-1.013a75.4 75.4 0 0 0-38.572 0h-1.013m0 158.072a76.4 76.4 0 0 0 40.598 0h-1.013a75.4 75.4 0 0 1-38.572 0h-1.013" fill="#fff" stroke="transparent" data-fill-palette-color="tertiary"/></svg><mask id="b"><svg viewBox="0 0 395.52 247.2" height="247.2" width="395.52"><svg/><svg viewBox="0 0 395.52 247.2" height="247.2" width="395.52"><svg viewBox="0 0 152.77 152.77" height="152.77" width="152.77" transform="translate(121.375 47.215)"><svg viewBox="0 0 152.77 152.77" height="152.77" width="152.77"><svg viewBox="0 0 152.77 152.77" height="152.77" width="152.77"><svg viewBox="0 0 152.77 152.77" height="152.77" width="152.77"><svg viewBox="0 0 152.77 152.77" height="152.77" width="152.77"><svg viewBox="0 0 71.943 72.016" height="72.016" width="71.943" transform="translate(40.413 40.377)"><svg xmlns="http://www.w3.org/2000/svg" xmlns:xlink="http://www.w3.org/1999/xlink" viewBox="8.846 4.5 87.211 87.3" xml:space="preserve" height="72.016" width="71.943" class="icon-jxe-0" data-fill-palette-color="accent"><g fill="#fff"><path d="M58.7 39.7c.2 0 .5-.1.7-.3l11.7-11.7c1.1-1.1.6-3.2-1-4.5-3.5-2.8-7.3-5-11.1-6.4-.4-.2-.8-.2-1.1-.2-1.3 0-2.2.9-2.1 2.3L57 38.1c.1.9 1 1.6 1.7 1.6m9.8-14.5c.4.3.6.7.6.9l-9.7 9.7-1.1-16.6q5.4 2.25 10.2 6M52.6 37.9c.4.5.9.7 1.3.7.5 0 1-.3.9-1l-1.3-19.2c-.1-1.8-1.8-3.5-3.6-3.7-.8-.1-1.7-.1-2.5-.1-2.9 0-5.7.5-8.1 1.4-1.5.5-1.7 2.5-.4 4.1zm-5.1-20.8c.7 0 1.5 0 2.3.1.5 0 1.3.8 1.3 1.3L52 33 41 18.6c-.1-.2-.2-.3-.2-.4 2-.7 4.3-1.1 6.7-1.1M30.3 32.7l19.6 7.9c.2.1.4.1.5.1.9 0 1.2-1 .5-1.9L37.4 21.1c-.8-1.1-2-1.7-3-1.7-.6 0-1.1.2-1.5.5q-3.6 3.45-5.1 8.4c-.5 1.6.7 3.7 2.5 4.4M34.4 22c.2 0 .6.2 1 .7l10.5 13.6-14.6-5.9c-.7-.3-1.1-1-1.1-1.2.8-2.9 2.3-5.3 4.2-7.2m15.9 23.1c1-.3.6-1.9-.6-2.4l-19.6-7.9q-.6-.3-1.2-.3c-1.2 0-2.1.9-2.1 2.2.2 3.8 1.1 7.8 2.7 11.5.6 1.5 2.2 2.6 3.6 2.6.3 0 .5 0 .8-.1zm-18.5 2.1c-1.5-3.4-2.3-6.8-2.5-10.1l16.8 6.8-13 4.4c-.3-.1-1-.4-1.3-1.1m20-.1c-.1 0-.2 0-.3.1l-16.4 5.6c-1.5.5-1.8 2.5-.6 4.1 2.7 3.6 5.9 6.7 9.3 9.3.7.5 1.4.8 2.1.8.9 0 1.7-.5 2-1.3l5.6-16.4c.3-1.1-.7-2.2-1.7-2.2m-6.1 17.2c-.1 0-.2-.1-.4-.2a40.8 40.8 0 0 1-8.8-8.8c-.1-.1-.2-.3-.2-.4l14.2-4.8zM58 50.9c-.3-.7-1-1.2-1.6-1.2-.4 0-.7.2-.8.6L50 66.8c-.5 1.5.7 3.6 2.5 4.3 3.9 1.7 7.8 2.6 11.5 2.7h.1c1.7 0 2.5-1.5 1.8-3.3zm-4.5 17.9c-.7-.3-1.1-1-1.1-1.2l4.4-13 6.8 16.8c-3.3-.3-6.7-1.1-10.1-2.6m26-5.6L61.8 49.6c-.3-.3-.7-.4-1-.4-.7 0-1.2.6-.8 1.4l7.9 19.6c.6 1.5 2.2 2.6 3.6 2.6.2 0 .5 0 .7-.1 3.4-1 6.2-2.8 8.4-5.1 1.1-1 .5-3.1-1.1-4.4m-7.9 7.3c-.3 0-1-.4-1.3-1.1l-5.9-14.6L78 65.2c.4.3.6.8.7 1-2 2-4.4 3.4-7.1 4.3M63 45.8c-1.2 0-1.3 1.4-.3 2.2l17.7 13.6c.7.6 1.5.8 2.2.8.9 0 1.6-.4 1.9-1.3 1.2-3.3 1.6-6.9 1.3-10.6-.2-1.8-1.9-3.5-3.7-3.6zm20.4 5c.3 3.3 0 6.3-1 9.1-.1 0-.3-.1-.4-.2L67.6 48.6l14.5 1c.5 0 1.2.7 1.3 1.2m-9-21.8q-.9 0-1.5.6L61.2 41.2c-.7.7.2 2.3 1.4 2.3l19.2 1.3h.2c1.6 0 2.5-1.5 1.9-3.2-1.5-4-3.7-7.7-6.4-11.1-1-1-2.1-1.5-3.1-1.5m6.9 13.3-16.6-1.1 9.8-9.8c.2 0 .6.2.9.6 2.5 3.3 4.5 6.7 5.9 10.3"/><path d="M45.2 4.5c-8.3 0-15.4 2.8-20.7 8C5.1 31.9 3.5 62.1 21 79.6c8.2 8.2 19.1 12.2 30.3 12.2 13 0 26.4-5.3 36.8-15.7 13.2-13.2 9.6-38.1-8-55.7-10-10.1-22.8-15.9-34.9-15.9M24.6 76.1c-10.9-10.9-13.4-27.3-8-42.2 0 1.7.2 3.4.4 5.1 1.6 10.4 7.1 20.7 15.5 29.1C42.4 78 54.8 83.8 66.7 84c-14.9 5.5-31.3 3-42.1-7.9m60.1-3.6C80.4 76.8 74.5 79 67.6 79 57 79 45.2 73.6 36.1 64.5c-7.7-7.7-12.7-17-14.1-26.3-1.4-9 .8-17 6.1-22.3 4.3-4.3 10.2-6.5 17.1-6.5 10.6 0 22.4 5.4 31.5 14.5 15.6 15.6 19.2 37.4 8 48.6"/></g></svg></svg><path d="M73.838 3.71a.4.4 0 0 1 .105-.283l.258-.328q.355-.416.826-.866.462-.45.925-.866.302-.241.453-.244.141-.002.459.235 1.019.847 1.764 1.696l.275.323a.43.43 0 0 1 .1.281.45.45 0 0 1-.105.295 10 10 0 0 0-.268.35q-.343.394-.795.832-.451.45-.925.867-.291.252-.453.254-.141.001-.48-.245a11 11 0 0 1-.953-.847q-.45-.44-.811-.85-.165-.205-.264-.322a.4.4 0 0 1-.111-.282m1.812 147.218q0-.043.033-.076l.076-.097a6 6 0 0 1 .228-.238q.141-.13.272-.238.087-.075.12-.076.043 0 .13.076.282.24.498.479.043.054.065.087a.14.14 0 0 1 .032.087.1.1 0 0 1-.033.076l-.076.097-.218.238a10 10 0 0 1-.272.238q-.076.065-.13.065-.033 0-.13-.065-.14-.12-.26-.24a3 3 0 0 1-.227-.25 1 1 0 0 0-.076-.087.1.1 0 0 1-.032-.076M0 74.753a1.78 1.78 0 1 1 3.559 0 1.78 1.78 0 0 1-3.559 0m149.213 0a1.78 1.78 0 1 1 3.559 0 1.78 1.78 0 0 1-3.559 0"/><g/></svg></svg></svg><g/></svg></svg><path d="M177.461 44.564a76.4 76.4 0 0 1 40.598 0h-1.013a75.4 75.4 0 0 0-38.572 0h-1.013m0 158.072a76.4 76.4 0 0 0 40.598 0h-1.013a75.4 75.4 0 0 1-38.572 0h-1.013" stroke="transparent"/></svg></svg></mask><linearGradient x1="0" x2="1" y1=".548" y2=".55" id="a"><stop stop-color="#ff6cab" offset="0"/><stop stop-color="#7366ff" offset="1"/></linearGradient><path fill="url(#a)" mask="url(#b)" data-fill-palette-color="accent" d="M0 0h395.52v247.2H0z"/></svg></svg></svg>